<?xml version="1.0" standalone="no"?>
<!DOCTYPE svg PUBLIC "-//W3C//DTD SVG 20010904//EN"
 "http://www.w3.org/TR/2001/REC-SVG-20010904/DTD/svg10.dtd">
<svg version="1.0" xmlns="http://www.w3.org/2000/svg"
 width="900.000000pt" height="900.000000pt" viewBox="0 0 900.000000 900.000000"
 preserveAspectRatio="xMidYMid meet">
<metadata>
Created by potrace 1.14, written by Peter Selinger 2001-2017
</metadata>
<g transform="translate(0.000000,900.000000) scale(0.100000,-0.100000)"
fill="#000000" stroke="none">
<path d="M5080 8982 c0 -4 -28 -8 -61 -9 -34 -2 -67 -7 -74 -13 -6 -5 -14 -7
-17 -5 -3 3 -25 1 -49 -5 -24 -6 -55 -13 -69 -16 -14 -3 -29 -9 -34 -15 -6 -5
-17 -9 -25 -9 -21 0 -181 -81 -181 -92 0 -5 -4 -7 -9 -4 -4 3 -16 -3 -26 -14
-10 -11 -24 -20 -32 -20 -7 0 -16 -7 -19 -15 -4 -8 -10 -15 -15 -15 -20 0
-168 -163 -198 -219 -8 -14 -19 -29 -25 -33 -6 -5 -7 -8 -1 -8 6 0 6 -3 -1 -8
-12 -8 -64 -135 -64 -157 0 -8 -4 -15 -8 -15 -4 0 -8 -18 -7 -40 1 -22 -2 -40
-5 -40 -11 0 -7 -135 4 -142 7 -5 6 -8 -2 -8 -8 0 -10 -5 -5 -12 4 -7 8 -22 9
-33 1 -26 25 -127 33 -140 3 -5 6 -13 7 -17 1 -5 3 -10 4 -13 1 -3 3 -8 4 -12
5 -24 71 -153 92 -180 13 -17 24 -36 24 -42 0 -6 5 -11 10 -11 6 0 10 -6 10
-13 0 -8 9 -22 20 -32 22 -20 29 -75 8 -58 -12 9 -204 10 -238 1 -41 -11 -98
-33 -120 -46 -38 -24 -100 -85 -100 -99 0 -7 -5 -13 -12 -13 -6 0 -8 -3 -5 -7
4 -3 2 -12 -4 -20 -6 -7 -8 -13 -4 -13 4 0 2 -6 -4 -14 -11 -13 -21 -59 -25
-121 -2 -27 -6 -30 -37 -31 -90 -4 -135 -8 -143 -12 -4 -2 -26 -6 -48 -7 -21
-2 -46 -9 -55 -17 -14 -11 -16 -11 -8 2 8 13 7 13 -8 1 -9 -7 -17 -10 -17 -6
0 4 -7 2 -15 -5 -8 -7 -15 -10 -15 -6 0 4 -13 0 -30 -9 -16 -9 -30 -13 -30 -9
0 4 -6 1 -13 -5 -8 -6 -17 -8 -20 -4 -4 3 -7 0 -7 -7 0 -7 -3 -11 -6 -8 -3 3
-38 -10 -77 -29 -40 -19 -74 -36 -77 -36 -3 -1 -15 -11 -28 -22 -13 -11 -26
-18 -29 -17 -3 2 -9 0 -12 -5 -3 -4 -32 -28 -64 -52 -33 -23 -84 -68 -116
-100 -79 -78 -181 -208 -181 -231 0 -5 -5 -10 -11 -10 -5 0 -8 -4 -5 -9 4 -5
2 -11 -3 -13 -5 -1 -11 -10 -13 -18 -2 -8 -7 -18 -11 -21 -5 -3 -9 -12 -11
-20 -1 -8 -8 -24 -14 -36 -7 -13 -9 -23 -5 -23 4 0 2 -4 -6 -9 -8 -5 -16 -18
-17 -28 -3 -20 -8 -41 -17 -63 -3 -8 -9 -28 -13 -45 -10 -41 -11 -45 -14 -47
-7 -9 -22 -183 -23 -263 -1 -90 12 -223 26 -275 2 -8 8 -34 12 -57 4 -24 12
-43 18 -43 6 0 8 -3 4 -6 -3 -3 1 -27 9 -52 8 -26 16 -51 18 -57 1 -5 10 -24
19 -42 9 -18 17 -39 17 -48 0 -8 4 -15 9 -15 7 0 20 -27 25 -53 0 -4 6 -11 11
-15 6 -4 17 -20 25 -37 23 -46 107 -167 155 -224 78 -91 288 -290 334 -315 9
-5 26 -20 38 -33 12 -12 26 -23 31 -23 8 0 23 -11 69 -50 7 -5 19 -10 28 -10
8 0 15 -7 15 -15 0 -8 9 -15 19 -15 11 0 21 -3 23 -7 4 -11 146 -96 186 -112
17 -7 32 -17 32 -22 0 -5 3 -8 8 -7 12 3 112 -45 112 -54 0 -4 7 -8 15 -8 9 0
27 -7 40 -16 14 -9 25 -14 25 -11 0 3 21 -6 46 -19 25 -13 50 -22 55 -19 5 4
9 1 9 -4 0 -6 9 -11 19 -11 11 0 22 -4 25 -8 3 -4 28 -14 56 -22 74 -20 74
-25 -2 -45 -5 -2 -9 -4 -10 -5 -4 -3 -31 -8 -83 -15 -55 -8 -230 -4 -230 5 0
2 -31 7 -75 14 -14 2 -66 14 -115 26 -49 12 -94 23 -100 24 -5 1 -16 5 -22 9
-15 9 -40 -2 -27 -12 5 -3 22 -24 39 -46 33 -45 170 -185 180 -185 3 0 12 -6
20 -13 32 -31 56 -47 69 -47 8 0 17 -7 20 -16 4 -9 9 -14 13 -11 3 4 18 -2 33
-13 16 -11 33 -20 39 -20 6 0 19 -4 29 -9 14 -8 39 -18 62 -26 17 -6 59 -16
80 -19 14 -3 25 -5 25 -7 0 -1 25 -3 55 -5 30 -1 64 -5 75 -7 11 -2 24 -2 29
1 5 3 28 6 51 8 23 1 51 5 63 8 11 4 29 9 39 11 33 7 87 30 108 45 31 24 105
103 100 109 -3 2 0 11 7 18 6 8 13 33 15 56 3 36 3 56 0 125 0 6 -5 12 -10 12
-6 0 -7 3 -4 6 3 4 2 15 -4 26 -6 11 -12 27 -14 37 -4 23 -85 141 -96 141 -5
0 -9 6 -9 13 0 6 -25 36 -55 66 -30 30 -55 58 -55 62 0 5 -6 9 -12 9 -7 0 -24
16 -38 34 -14 19 -26 33 -28 32 -4 -5 -102 97 -102 106 0 4 -7 8 -15 8 -8 0
-15 3 -15 8 -1 4 -23 31 -51 61 -27 30 -68 80 -92 110 -23 31 -46 59 -52 63
-5 4 -6 8 -2 8 5 0 1 7 -7 16 -9 8 -16 22 -16 30 0 8 -4 14 -8 14 -5 0 -14 16
-22 35 -8 19 -18 35 -24 35 -5 0 -7 3 -3 6 3 4 0 19 -8 34 -8 15 -11 30 -8 34
4 3 1 6 -5 6 -6 0 -9 7 -6 15 4 8 1 15 -7 15 -7 0 -10 3 -7 6 4 3 2 20 -3 37
-17 57 -23 110 -22 207 3 197 8 212 44 125 12 -30 26 -55 31 -55 4 0 8 -6 8
-13 0 -7 23 -51 52 -97 46 -76 63 -99 93 -134 6 -6 26 -31 45 -56 37 -48 153
-159 210 -200 19 -14 49 -40 66 -57 29 -30 103 -70 144 -78 25 -5 115 -50 110
-55 -2 -3 3 -16 10 -30 8 -14 13 -28 12 -32 -1 -5 3 -8 8 -8 5 0 9 -3 8 -7 -1
-5 4 -21 10 -36 7 -16 12 -33 12 -38 0 -5 4 -9 9 -9 7 0 24 -42 18 -46 -1 -1
5 -10 14 -20 9 -11 22 -34 30 -51 8 -18 17 -33 21 -33 5 0 8 -4 8 -9 0 -9 59
-110 70 -121 19 -18 41 -64 33 -69 -17 -11 -30 -65 -22 -86 4 -11 8 -14 8 -8
1 16 41 63 53 63 5 0 7 -4 4 -8 -3 -5 4 -15 15 -22 10 -8 19 -20 19 -27 0 -7
5 -13 10 -13 6 0 3 -12 -6 -26 -17 -25 -23 -111 -9 -133 10 -17 23 -13 21 7
-5 27 14 71 35 83 11 6 19 6 19 0 0 -10 41 -59 106 -128 23 -24 39 -43 37 -43
-2 0 2 -7 11 -15 8 -8 19 -15 25 -15 6 0 11 -4 11 -10 0 -18 188 -190 208
-190 5 0 12 -7 16 -15 3 -8 10 -15 16 -15 5 0 19 -9 30 -20 19 -19 19 -20 -20
-96 -22 -42 -40 -83 -40 -91 0 -7 -7 -16 -15 -19 -8 -4 -12 -10 -9 -15 3 -5 0
-9 -7 -9 -7 0 -9 -3 -6 -6 4 -4 -2 -19 -13 -34 -11 -15 -17 -30 -13 -34 3 -3
1 -6 -5 -6 -6 0 -13 -14 -17 -30 -4 -17 -10 -30 -14 -30 -5 0 -16 -19 -27 -42
-10 -24 -21 -45 -24 -48 -3 -3 -17 -27 -31 -55 -52 -101 -101 -190 -110 -200
-5 -5 -9 -17 -9 -26 0 -9 -7 -20 -16 -23 -9 -4 -14 -9 -11 -12 3 -4 -5 -24
-19 -45 -13 -21 -21 -39 -17 -39 5 0 1 -5 -7 -10 -8 -5 -15 -13 -16 -17 -1
-12 -21 -52 -54 -108 -16 -27 -33 -59 -39 -70 -5 -11 -26 -49 -46 -85 -21 -36
-38 -71 -38 -77 0 -7 -4 -13 -8 -13 -7 0 -28 -38 -81 -145 -11 -22 -27 -48
-36 -57 -8 -10 -12 -18 -8 -18 4 0 -2 -13 -14 -30 -21 -29 -22 -29 -50 -15
-16 8 -38 15 -50 15 -11 0 -20 4 -20 9 0 4 -28 14 -62 21 -35 7 -70 15 -78 17
-27 7 -74 14 -112 17 -21 1 -41 5 -44 9 -4 3 -15 2 -25 -4 -11 -5 -19 -6 -19
-1 0 10 -138 7 -186 -3 -16 -4 -36 -7 -44 -7 -8 0 -21 -5 -27 -11 -7 -5 -13
-7 -13 -3 0 3 -16 0 -35 -8 -20 -9 -38 -15 -41 -15 -12 2 -114 -44 -114 -50 0
-4 -6 -8 -12 -8 -30 -1 -152 -85 -280 -191 -17 -14 -17 -12 -11 29 11 69 3
309 -10 309 -4 0 -7 6 -6 13 3 13 -19 96 -29 112 -4 6 -7 15 -8 21 -3 21 -54
119 -76 149 -22 29 -130 138 -160 162 -26 19 -140 76 -154 76 -8 0 -14 4 -14
9 0 5 -4 6 -10 3 -5 -3 -10 -1 -10 5 0 6 -5 8 -10 5 -6 -4 -17 -1 -25 5 -8 7
-15 9 -15 5 0 -4 -6 -2 -13 4 -8 6 -17 8 -20 5 -3 -3 -11 -3 -18 2 -12 7 -61
14 -116 17 -13 0 -23 5 -23 9 0 5 -9 4 -20 -2 -11 -6 -20 -7 -20 -2 0 5 -46 7
-102 6 -57 -1 -103 -3 -103 -4 0 -1 -16 -3 -35 -5 -19 -2 -51 -7 -70 -10 -19
-4 -44 -8 -55 -10 -11 -2 -21 -4 -22 -5 -2 -2 -7 -4 -13 -5 -5 -1 -11 -4 -12
-5 -2 -1 -12 -4 -23 -5 -31 -4 -185 -66 -237 -96 -25 -15 -49 -25 -52 -22 -3
3 -8 -2 -12 -11 -3 -9 -10 -16 -16 -16 -8 0 -69 -41 -158 -106 -16 -12 -26
-24 -23 -28 4 -3 1 -6 -4 -6 -11 0 -133 -115 -133 -125 0 -3 -14 -19 -30 -35
-17 -16 -30 -33 -30 -37 0 -5 -8 -16 -17 -25 -23 -21 -39 -42 -39 -48 0 -11
-39 -70 -46 -70 -4 0 -8 -9 -8 -20 0 -11 -4 -20 -10 -20 -5 0 -10 -7 -10 -15
0 -8 -5 -15 -11 -15 -5 0 -7 -4 -4 -10 3 -5 1 -10 -4 -10 -6 0 -10 -3 -9 -7 1
-5 -9 -30 -21 -58 -25 -55 -58 -137 -59 -145 -1 -7 -11 -38 -28 -83 -8 -20
-14 -39 -14 -42 0 -3 0 -6 -1 -7 0 -2 -3 -21 -5 -42 -8 -67 -15 -71 -60 -35
-50 39 -132 82 -144 74 -6 -4 -10 -2 -10 4 0 10 -56 26 -77 22 -7 -1 -13 2
-13 7 0 5 -16 8 -36 7 -19 -1 -37 2 -39 6 -3 3 -48 7 -101 8 -53 1 -99 2 -103
3 -17 2 -32 -3 -28 -10 3 -4 -11 -7 -31 -8 -52 -1 -76 -8 -167 -47 -27 -12
-52 -25 -53 -30 -2 -4 -7 -5 -12 -2 -4 3 -13 -2 -20 -10 -7 -8 -19 -15 -26
-15 -8 0 -14 -4 -14 -8 0 -5 -8 -13 -19 -18 -24 -11 -90 -63 -110 -87 -9 -10
-33 -37 -53 -60 -21 -23 -38 -48 -38 -54 0 -7 -4 -13 -8 -13 -7 0 -40 -57 -47
-80 -3 -9 -17 -45 -25 -65 -21 -50 -29 -88 -32 -163 -2 -30 -6 -41 -15 -38 -7
3 -13 2 -13 -3 0 -4 -15 -7 -32 -6 -74 4 -68 57 -68 -576 0 -552 1 -568 18
-552 11 10 17 21 15 25 -2 3 1 8 6 10 5 1 17 19 28 40 20 36 42 39 47 6 1 -9
7 -22 13 -29 6 -8 12 -17 12 -22 1 -4 15 -32 32 -62 l31 -55 3954 0 c2629 0
3954 3 3954 10 0 6 -5 10 -11 10 -6 0 -32 17 -58 38 -25 21 -61 47 -78 58 -18
10 -33 22 -33 27 0 4 -5 5 -10 2 -6 -3 -13 0 -16 8 -3 9 -20 21 -37 28 -18 7
-38 19 -45 26 -7 7 -20 13 -28 13 -8 0 -14 4 -14 8 0 4 -16 14 -35 21 -19 7
-35 17 -35 23 0 6 -3 8 -6 5 -4 -4 -23 2 -43 12 -35 18 -76 36 -116 51 -11 5
-38 16 -60 26 -22 9 -47 17 -55 17 -8 0 -21 4 -27 10 -7 5 -13 6 -13 1 0 -5
-4 -4 -8 1 -6 9 -29 18 -102 40 -3 1 -13 5 -22 9 -9 4 -22 9 -30 10 -7 2 -21
6 -30 10 -9 4 -22 8 -30 10 -7 1 -17 4 -23 7 -5 4 -23 10 -40 14 -40 11 -44
12 -52 15 -5 1 -11 2 -15 1 -5 0 -8 3 -8 9 0 6 -6 9 -12 8 -21 -5 -9 30 22 64
17 18 33 41 36 50 3 10 9 18 14 18 5 0 12 9 15 20 3 11 12 26 18 33 23 25 38
58 31 69 -4 6 -3 8 2 5 6 -3 16 9 23 26 7 18 17 41 21 52 8 18 22 59 26 78 1
4 3 8 4 10 1 1 3 13 4 27 1 14 5 31 10 38 5 8 10 51 11 97 2 46 6 88 9 93 3 6
3 13 -2 16 -4 3 -9 26 -11 52 -1 26 -5 53 -9 58 -3 6 -8 18 -9 27 -1 9 -8 29
-14 45 -7 16 -13 35 -15 43 -1 8 -7 17 -12 20 -5 3 -12 16 -16 29 -4 12 -12
22 -17 22 -5 0 -9 5 -9 10 0 24 -174 198 -193 192 -4 -1 -10 5 -13 13 -4 8
-12 15 -20 15 -8 0 -14 5 -14 10 0 6 -6 10 -14 10 -7 0 -19 7 -26 15 -7 8 -24
21 -39 28 -47 24 -76 42 -83 52 -7 9 -4 71 8 145 2 19 6 49 7 65 1 17 5 32 9
35 3 3 9 21 11 40 3 19 6 35 7 35 2 0 5 16 14 60 3 17 17 71 31 120 35 121 36
128 37 143 1 6 4 12 7 12 4 0 8 12 9 27 1 15 8 30 15 35 6 4 9 8 4 8 -4 0 0
16 8 36 8 20 12 40 9 45 -3 5 -2 9 3 9 4 0 13 17 20 37 6 21 17 52 24 68 7 17
13 32 14 35 1 3 7 19 14 35 7 17 13 38 14 48 1 9 5 17 9 17 4 0 8 6 8 14 0 31
19 24 39 -15 26 -48 33 -58 93 -120 25 -27 51 -49 57 -49 6 0 11 -4 11 -10 0
-5 5 -10 11 -10 6 0 27 -8 47 -17 40 -19 187 -24 267 -9 22 4 50 8 63 9 12 1
22 4 22 9 0 4 7 5 15 2 8 -4 15 -1 15 6 0 6 5 8 10 5 6 -4 18 -1 27 7 10 7 14
8 10 1 -4 -6 11 -3 32 8 22 10 47 19 56 19 8 0 15 5 15 11 0 5 4 8 9 4 5 -3
12 -1 16 5 4 6 11 8 16 5 5 -4 9 -1 9 4 0 6 9 11 21 11 13 0 18 4 13 12 -4 6
-3 8 4 4 5 -3 12 0 15 6 2 7 7 10 11 7 3 -3 -9 -29 -28 -56 -19 -28 -32 -54
-29 -57 4 -3 1 -6 -5 -6 -7 0 -12 -7 -12 -15 0 -8 -4 -15 -8 -15 -9 0 -37 -70
-34 -82 1 -5 -3 -8 -9 -8 -5 0 -8 -4 -5 -9 4 -5 2 -11 -4 -13 -6 -2 -12 -13
-15 -26 -3 -12 -8 -32 -11 -45 -11 -44 -16 -73 -19 -119 -2 -25 -6 -51 -9 -56
-3 -5 -2 -12 2 -16 4 -4 7 -17 8 -29 4 -79 80 -187 166 -235 37 -21 157 -54
169 -47 4 3 10 1 14 -4 4 -7 15 -7 30 -1 17 6 25 6 25 -1 0 -6 4 -7 10 -4 5 3
29 8 54 10 25 3 57 10 73 17 15 6 33 12 39 13 59 13 254 185 254 224 0 5 7 12
16 15 9 4 14 9 11 13 -3 3 7 25 24 49 17 24 27 49 24 54 -3 6 -1 10 4 10 6 0
11 4 11 9 0 5 10 30 22 57 12 27 23 54 24 59 1 8 15 59 29 105 1 3 5 23 10 45
4 22 10 49 12 60 3 11 6 43 8 70 2 28 4 52 5 55 6 15 4 37 -5 49 -7 11 -7 13
3 7 9 -6 11 -2 8 16 -3 12 -8 52 -11 88 -6 62 -11 99 -15 110 -1 3 -2 8 -1 13
0 4 -3 7 -7 7 -5 0 -17 -18 -27 -40 -10 -22 -23 -40 -28 -40 -6 0 -7 -3 -4 -6
4 -4 -2 -19 -13 -34 -11 -16 -20 -33 -20 -39 0 -6 -4 -11 -10 -11 -5 0 -10 -5
-10 -10 0 -13 -48 -87 -77 -120 -13 -14 -23 -29 -23 -34 0 -5 -8 -16 -17 -25
-10 -9 -35 -35 -55 -59 -21 -23 -38 -39 -38 -35 0 5 -4 3 -8 -2 -17 -24 -90
-64 -125 -68 l-39 -5 39 40 c21 21 50 52 66 68 15 16 27 33 27 38 0 5 7 12 15
16 8 3 15 11 15 18 0 8 9 20 20 28 11 8 20 20 20 28 0 7 7 15 15 18 8 4 13 10
10 14 -3 5 7 21 22 36 16 16 27 30 25 31 -1 2 17 45 41 96 48 99 65 141 72
172 2 11 8 35 14 53 5 17 7 32 4 32 -3 0 -1 6 4 13 6 6 9 20 8 30 -2 9 0 17 3
17 4 0 7 20 7 45 -1 25 3 45 7 45 4 0 3 11 -2 25 -6 17 -6 25 1 25 6 0 8 4 5
8 -3 5 -7 29 -10 54 -3 26 -11 59 -18 75 -6 15 -11 31 -10 36 1 4 -3 7 -8 7
-6 0 -10 5 -10 10 0 14 -55 70 -69 70 -6 0 -11 4 -11 8 0 5 -16 14 -35 22 -19
8 -35 16 -35 19 0 3 -13 7 -28 8 -39 3 -80 11 -91 17 -5 4 -12 2 -15 -2 -3 -5
-17 -7 -30 -5 -22 4 -23 7 -11 19 7 8 18 14 23 14 5 0 28 14 50 30 23 17 44
30 46 30 8 0 69 56 135 122 82 82 123 128 115 128 -4 0 -1 6 5 13 6 8 7 18 3
22 -4 5 -2 5 5 1 12 -6 40 31 35 47 -1 4 2 7 7 7 5 0 20 21 33 48 13 26 26 49
31 50 4 2 7 7 7 12 0 4 8 25 17 46 9 22 16 42 15 47 -1 4 3 7 9 7 6 0 9 7 5
15 -3 8 -1 15 4 15 4 0 12 15 16 33 4 17 9 35 10 40 1 4 2 8 4 10 1 1 3 9 5
17 1 8 7 33 13 55 16 60 33 152 37 201 1 17 5 37 10 44 6 9 4 11 -4 5 -10 -5
-11 -3 -4 11 5 11 9 48 9 84 -1 36 4 68 9 72 7 5 7 8 0 8 -6 0 -10 24 -9 53 1
28 -3 60 -8 71 -8 14 -7 17 3 11 8 -6 10 -4 4 5 -5 7 -9 25 -11 39 -1 14 -3
26 -4 26 -1 0 -3 14 -5 30 -4 43 -13 83 -32 140 -10 28 -18 52 -19 55 0 3 -7
21 -15 40 -7 19 -12 38 -11 43 1 4 -2 7 -6 7 -5 0 -17 19 -27 43 -22 49 -91
158 -131 206 -46 54 -131 141 -139 141 -4 0 -16 11 -27 25 -11 14 -26 25 -34
25 -8 0 -12 5 -9 10 3 6 0 10 -8 10 -8 0 -22 9 -32 20 -10 11 -24 20 -32 20
-7 0 -13 5 -13 10 0 6 -6 10 -14 10 -7 0 -19 7 -26 15 -7 8 -16 12 -21 9 -5
-3 -9 0 -9 5 0 6 -6 11 -13 11 -8 0 -22 9 -31 19 -17 18 -16 20 4 26 12 4 19
9 16 12 -3 3 3 18 13 32 14 21 71 132 76 151 1 3 5 13 9 22 4 9 9 23 10 31 1
8 8 23 16 33 8 10 10 15 3 11 -7 -5 -6 4 4 23 8 17 12 37 9 45 -2 7 0 15 6 17
5 2 11 20 11 41 1 20 4 37 7 37 4 0 7 6 7 13 1 6 4 50 7 97 8 105 8 93 1 165
-3 33 -6 67 -6 75 -1 8 -3 22 -6 30 -6 17 -10 39 -14 88 -2 17 -7 32 -11 32
-4 0 -7 3 -6 8 2 6 -12 88 -17 102 -1 3 -7 26 -15 53 -7 26 -15 47 -19 47 -3
0 -7 14 -8 32 -1 17 -6 34 -10 37 -5 3 -10 13 -12 21 -2 8 -4 20 -6 25 -3 13
-13 38 -36 94 -11 24 -19 50 -19 57 0 8 -4 14 -10 14 -5 0 -7 6 -4 13 3 8 -2
20 -11 27 -8 7 -15 17 -15 22 0 16 -42 103 -54 110 -6 4 -7 8 -2 8 5 0 2 8 -6
18 -8 9 -21 32 -29 50 -8 17 -17 32 -21 32 -5 0 -8 5 -8 11 0 6 -13 30 -30 54
-16 24 -30 46 -30 50 0 6 -13 23 -42 56 -10 10 -18 22 -18 26 0 20 -180 210
-265 279 -62 51 -179 126 -225 144 -19 8 -50 22 -68 32 -19 10 -31 14 -28 9 3
-5 -12 -1 -34 10 -22 11 -43 19 -47 18 -4 -1 -11 0 -15 1 -5 1 -16 3 -25 5
-10 1 -25 4 -33 8 -8 3 -43 8 -77 11 -34 2 -67 7 -72 10 -5 3 -11 1 -13 -5 -2
-7 -12 -7 -31 0 -15 6 -27 7 -27 2 0 -4 -12 -8 -27 -8 -16 1 -50 -3 -78 -7
-27 -4 -58 -8 -67 -9 -10 -1 -18 -4 -18 -7 0 -4 -22 -12 -50 -19 -27 -7 -50
-17 -50 -22 0 -5 -9 -9 -20 -9 -11 0 -20 -5 -20 -11 0 -5 -4 -7 -10 -4 -5 3
-10 2 -10 -2 0 -5 -16 -17 -35 -27 -42 -23 -152 -131 -161 -158 -3 -10 -9 -18
-14 -18 -5 0 -11 -9 -15 -20 -6 -19 -7 -19 -28 3 -22 23 -55 42 -69 39 -5 -1
-8 2 -8 7 0 8 -23 20 -52 27 -5 1 -11 3 -15 4 -5 1 -12 3 -18 5 -5 1 -12 3
-15 4 -14 7 -80 5 -80 -2 0 -4 -5 -5 -11 -1 -6 3 -21 2 -32 -4 -65 -29 -77
-32 -77 -17 0 8 -4 15 -10 15 -5 0 -10 7 -10 15 0 8 -4 15 -10 15 -5 0 -10 6
-10 13 0 8 -9 22 -20 32 -11 10 -18 20 -16 22 3 4 -37 54 -81 100 -12 13 -20
23 -18 23 5 0 -29 32 -97 94 -45 40 -167 123 -188 128 -8 2 -18 7 -21 12 -7 9
-76 36 -159 62 -66 21 -90 26 -137 28 -24 0 -43 4 -43 7 0 3 -25 7 -56 8 -31
1 -61 4 -65 7 -5 3 -9 1 -9 -5 0 -6 -11 -6 -30 -1 -16 5 -30 6 -30 2z"/>
</g>
</svg>
